<?xml version="1.0" encoding="UTF-8"?>
<svg viewBox="0 0 422 698" version="1.1" xmlns="http://www.w3.org/2000/svg" xmlns:xlink="http://www.w3.org/1999/xlink">
    <defs>
        <rect id="path-1" x="0" y="0" width="422" height="698"></rect>
    </defs>
    <g id="Layout" stroke="none" stroke-width="1" fill="#C6DAF2" fill-rule="evenodd" opacity="0.400491">
        <mask id="mask-2">
            <use xlink:href="#path-1"></use>
        </mask>
        <path d="M414.738481,-141 L443.542242,-139.864997 L478.883266,-136.335152 L507.672991,-132.761612 L531.685199,-127.850875 L556.725195,-121.50448 L572.93697,-116.680339 L588.582201,-111.402037 L600.630729,-107.087047 L603.089948,-106.545053 L605.406614,-108.625439 L650.681145,-86.9910506 L668.596599,-76.3562247 L698.94269,-54.878111 L720.393306,-36.7353071 L740.155674,-17.9639998 L752.249522,-4.82754484 L765.869855,11.2920989 L777.670009,26.6415186 L791.91299,47.2844224 L803.22503,65.8819171 L812.953824,84.3003872 L817.608745,93.2209309 C817.834864,94.7883161 818.445852,96.0550329 819.44171,97.0210815 C820.935497,98.4701542 824.236891,100.850545 825.793662,102.866415 C826.831509,104.210328 830.007962,112.047286 835.323021,126.377289 L844.048724,150.974115 L850.713206,174.395219 L855.246421,193.688319 L858.894872,211.353547 L861.020412,230.678589 L862.837664,250.321898 L864,270.106132 L864,290.276263 L861.020412,327.566301 L856.791568,357.320619 L851.865318,380.268972 L842.728197,412.100801 L832.795018,439.409587 L821.429163,464.402326 L808.438787,488.90168 L794.201155,511.394212 L781.963107,529.038247 L766.944992,548.311672 L750.297801,566.997258 L731.234293,586.121058 L710.417808,604.028741 L692.216183,617.575518 L675.426558,629.830063 L660.093814,638.900868 L639.818138,650.556417 L619.22708,660.530227 L606.475766,665.529447 L587.429166,672.864043 L570.759223,678.375482 L555.476193,682.962689 L533.884703,688.171798 L514.330455,691.33876 L487.1516,695.20808 L462.948889,698 L456.288734,698 L439.011254,696.439586 L421.263248,693.116752 L399.076323,691.33876 L379.056193,688.171798 L358.531014,682.962689 L340.635659,677.19962 L319.967561,669.959555 L302.732852,662.505497 L288.068504,655.955793 L265.09544,643.586859 L241.461692,629.830063 L224.24077,615.999285 L205.65189,599.316759 L186.53369,580.978798 L174.065254,568.151636 L162.308824,554.575157 L152.351106,541.208632 L145.214946,529.038247 C141.988288,523.904246 140.033862,520.657682 139.351667,519.298556 C138.328375,517.259866 137.660351,509.114199 135.521707,506.15023 C134.307169,504.466989 131.233224,500.745159 126.299873,494.98474 L125.645847,494.22182 C124.981277,493.447339 124.285072,492.638175 123.557233,491.794328 L112.818051,479.841828 L99.6156266,462.922698 L87.9803476,446.066982 L78.1873432,427.640004 L70.2300805,410.204178 L63.4318179,395.013453 C57.9779045,381.851399 54.8275977,374.306019 53.9808975,372.377314 C52.7108472,369.484257 50.7536261,371.342039 49.4378017,368.719067 C48.5605855,366.970419 46.9815898,361.917907 44.7008146,353.561531 L40.9992171,338.789337 L38.9811217,327.566301 L37.5208287,312.853763 L36.1914647,294.68728 L34.9959574,274.644533 L36.1914647,253.024822 L37.5208287,239.172885 L37.0620532,233.08404 C35.7131503,234.808572 34.8906774,236.838187 34.5946346,239.172885 C34.5510989,239.516223 34.4916879,239.988335 34.4164015,240.589219 L34.3693246,240.965203 C33.9121602,244.618611 32.9571452,252.310353 31.5042798,264.04043 L30.8286455,275.907519 L31.5042798,293.562895 L32.3842605,317.556904 L33.0894827,329.875396 L33.0894827,344.745763 C31.1096948,342.54074 29.8237835,340.555265 29.2317489,338.789337 C28.6397142,337.02341 27.8639603,332.195887 26.9044871,324.306769 C26.9443687,321.630698 26.7176193,320.026558 26.2242391,319.494349 C25.4841687,318.696036 25.1228715,318.362901 24.5637807,319.494349 C24.1910536,320.248648 24.3993747,324.230415 25.1887442,331.439649 L26.9044871,349.807238 L30.8286455,368.719067 L34.9959574,387.419756 L40.9992171,408.839007 L49.4378017,432.977816 L57.9153587,453.755227 L64.2457457,467.795498 L69.2642151,478.571323 C67.3046298,478.008775 65.6318067,476.89781 64.2457457,475.238427 C62.1666542,472.749353 58.213315,467.52802 55.6113443,461.97521 C53.8766971,458.273336 51.0197268,451.860769 47.0404331,442.737511 L41.7703528,431.821295 L36.1914647,420.147734 C34.7101305,414.872014 33.4410625,411.779097 32.3842605,410.868983 C30.7990576,409.503812 31.0900657,409.539373 30.1609073,410.204178 C29.5414683,410.647381 29.7640477,413.373937 30.8286455,418.383845 C28.4493711,414.845661 26.9145689,412.119105 26.2242391,410.204178 C25.5339092,408.28925 23.7949493,403.729795 21.0073594,396.525811 L16.0635073,381.86701 L11.3373073,366.091103 L7.9390923,352.936749 L4.857543,336.167131 L2.50604069,319.494349 L0.708188953,299.238989 L0,281.531189 L0.708188953,259.997847 L1.38337985,241.757705 L4.857543,216.782104 L7.26210316,200.574186 L11.3373073,182.275007 L13.3892954,173.460404 L14.3494199,160.905967 L16.0635073,153.348133 L18.712836,143.031507 L24.0295408,128.778709 L32.3842605,109.21374 L40.9992171,90.8435608 L49.4378017,74.2567149 L57.9153587,60.0107519 L68.2626272,44.4956042 L81.1419556,26.6415186 L95.226638,9.06182838 L108.091516,-4.82754484 L119.995146,-17.2453272 L136.424748,-31.9079736 L154.582648,-46.856975 L169.690003,-58.2289389 L183.593641,-67.6999445 C185.840642,-69.2173308 187.690156,-70.4448375 189.142183,-71.3824647 C191.320223,-72.7889055 194.344566,-78.3514599 196.359583,-79.5721874 C197.702928,-80.3860057 201.932629,-82.8589601 209.048688,-86.9910506 L225.314331,-95.9874658 L247.455589,-105.81674 L270.64576,-114.92583 L291.743259,-122.285579 L319.043742,-129.556831 L343.53114,-134.815328 L360.794697,-137.122742 L387.778612,-139.864997 L414.738481,-141 Z M236.717139,564.279927 C234.759029,563.315713 235.394421,565.065794 233.734702,566.149582 C232.628223,566.872107 230.049989,566.958425 226,566.408534 C227.331892,567.639208 228.520776,568.973504 229.566652,570.411421 C231.135466,572.568296 230.833879,575.494592 233.371406,577.267568 C235.063092,578.449552 237.197723,578.905648 239.775301,578.635854 C239.772146,579.602374 240.344943,580.721185 241.493693,581.992286 C242.498849,583.1045 243.287942,583.432325 244.072322,583.706232 L244.408812,583.822449 C244.858724,583.978684 245.316955,584.151387 245.822941,584.476857 C246.834913,585.127797 248.117916,586.027656 249.671949,587.176434 L256.543244,592.222772 L262.568937,596.513457 L269.77182,601.626963 L276.723065,605.915807 L287.548458,612.251141 C294.010338,615.048214 298.735555,617.174362 301.724109,618.629586 C306.206941,620.812421 305.459655,621.232695 309.729867,623.941195 C314.000079,626.649695 316.545809,626.331137 318.949204,626.572945 C321.352599,626.814754 325.808485,629.60138 328.141643,630.562298 C330.474801,631.523217 334.796396,633.288642 338.170321,633.752205 C341.544247,634.215767 345.309652,634.05126 346.273854,633.069054 C347.238056,632.086847 347.430122,630.640834 345.675594,629.981284 C343.921067,629.321734 343.332518,630.284546 340.188366,629.36884 C337.044214,628.453135 338.326604,626.167556 337.667742,625.095122 C337.463268,624.762298 336.350842,624.085561 334.330465,623.064911 L333.866546,622.832439 C331.552036,621.681462 328.190081,620.133734 323.780681,618.189257 L318.165953,615.693685 L311.964266,612.614987 L306.080435,609.836272 L299.207633,606.656714 L291.671922,603.182652 L283.477169,599 L276.338575,594.983732 L270.442091,591.26875 L263.270645,586.723149 L256.838758,582.278687 L251.493665,577.692165 C247.875744,574.695374 244.951285,572.187358 242.720286,570.168115 C239.373787,567.139251 238.675248,565.24414 236.717139,564.279927 Z M466.990963,-42.8217699 C465.000619,-42.0018035 464.914943,-39.7577697 463.983307,-38.3223503 C463.05167,-36.886931 460.904713,-35.9137439 458.412155,-36.4003375 C455.919597,-36.886931 451.081434,-38.7077892 448.617136,-39.1892353 C446.152839,-39.6706815 445.107367,-39.5833535 442.702611,-39.5833535 C441.099441,-39.5833535 438.906185,-39.2914987 436.122843,-38.7077892 C434.838857,-40.6778444 433.621213,-41.5235989 432.469913,-41.2450527 C430.742963,-40.8272334 427.730517,-38.321993 426.286412,-36.886931 C424.842307,-35.4518691 422.771494,-35.7995633 420.631353,-37.6914584 C418.491211,-39.5833535 416.622963,-41.7817851 412.98612,-41.7817851 C409.349277,-41.7817851 406.908819,-40.6870122 405.693204,-39.1892353 C404.47759,-37.6914584 403.636052,-37.2919725 400.789201,-37.2919725 C398.891299,-37.2919725 394.986701,-36.9947608 389.075406,-36.4003375 C386.310838,-36.4542385 384.467846,-36.344242 383.546427,-36.070348 C382.164299,-35.659507 378.985226,-33.8775341 377.312838,-33.5274758 C375.64045,-33.1774174 374.978195,-36.4003375 373.325015,-36.4003375 C371.671835,-36.4003375 369.573671,-33.7920086 368.579296,-32.5567501 C367.584921,-31.3214916 365.162202,-30.4180993 362.231004,-30.1143418 C359.299807,-29.8105842 348.424313,-29.9573669 339.103176,-26.9296102 C332.889085,-24.9111056 323.315995,-21.3897082 310.383907,-16.3654179 L296.694037,-10.5977054 C293.128365,-9.58928161 290.559377,-8.19742749 288.987073,-6.42214302 C286.628617,-3.75921632 287.306183,-1.7395258 285.277565,-0.148074859 C283.248947,1.44337608 281.319707,-1.1798984 278.258722,0.546817173 C275.197737,2.27353275 276.555651,4.94674207 274.532276,6.80115343 C273.183359,8.03742768 271.527687,8.31035187 269.565261,7.61992603 C268.014413,6.61281628 266.913498,5.97683735 266.262516,5.71198925 C265.286043,5.31471709 262.87657,3.94082073 256.112566,8.36751377 C249.348562,12.7942068 250.203487,12.3800325 247.087032,15.5724126 C243.970577,18.7647928 244.440238,19.9701491 246.300885,20.4774866 C247.541316,20.8157116 248.359234,21.1318774 248.754639,21.425984 L235.139247,24.3740958 C235.846735,22.9798238 236.023607,21.8325883 235.669863,20.9323892 C235.139247,19.5820907 234.053408,19.5289892 232.317081,20.4774866 C230.580754,21.425984 220.277224,31.0697694 217.886149,33.7917288 C216.2921,35.6063684 211.979351,41.1099599 204.947905,50.3025033 L195.923428,61.1142212 C192.913538,65.2163414 191.13106,67.6779382 190.575995,68.4990115 C190.02093,69.3200849 188.100894,70.920217 184.815885,73.2994079 L184.815885,66.6325603 C184.639203,65.682325 184.108261,65.0856831 183.223059,64.8426345 C181.895256,64.4780617 179.654794,67.0367636 177.541859,70.0070095 C176.133235,71.9871734 172.797165,76.2823542 167.533649,82.892552 L158.768568,95.4600398 L151.645721,106.160964 L143.103081,118.377513 L134.368216,130.952903 C130.538987,137.632229 128.18068,142.135667 127.293295,144.463218 C125.962217,147.954544 124.485051,155.142385 124.14188,164.358221 C123.79871,173.574056 123.709904,177.489379 122.168192,182.109073 C120.626481,186.728766 120.300585,186.793733 119.513721,187.989608 C118.726856,189.185482 115.619195,191.89901 114.223082,194.848702 C113.29234,196.815163 111.226079,201.435128 108.0243,208.708597 C106.435087,212.460352 105.442064,214.894975 105.045232,216.012467 C104.449983,217.688704 104.500253,219.900127 105.627792,221.825172 C106.755331,223.750218 108.0243,223.87821 108.0243,227.287819 C108.0243,229.560892 107.587988,233.699052 106.715364,239.7023 L103.682879,260.293082 C102.423556,260.317686 101.626071,259.941043 101.290422,259.163153 C100.786948,257.996319 100.974823,249.968336 100.974823,248.820331 C100.974823,248.054994 100.680998,246.990916 100.093346,245.628096 C97.4778029,249.234438 96.048478,251.539037 95.8053718,252.541893 C95.5926539,253.419392 95.4844842,259.196199 95.4808628,269.872314 L95.480834,270.903899 C95.4808818,271.078299 95.4809561,271.253933 95.4810566,271.430802 L95.4819761,272.506825 C95.4827998,273.23405 95.484045,273.981024 95.4857116,274.747749 L95,303.100272 C95.1361908,308.903186 95.4046481,312.865975 95.8053718,314.988639 C96.2060956,317.111303 97.1398592,321.253963 98.6066628,327.41662 C98.7177032,327.127048 98.8255915,326.845931 98.9303276,326.573268 L99.3803629,325.40335 C99.8567609,324.166847 100.254355,323.141697 100.573145,322.327901 C101.290422,320.496859 101.288717,317.384732 102.316377,315.742426 C103.001484,314.647556 104.719638,313.463889 107.470838,312.191426 C108.041392,309.411725 108.326669,306.960566 108.326669,304.837947 L108.326669,289.808899 L109.70593,283.460822 L112.288038,275.786192 L116.232131,266.401693 C117.120099,263.943894 117.824722,262.381448 118.346002,261.714357 C119.127921,260.71372 120.221011,259.045715 119.867366,263.318549 C119.631602,266.167105 118.710755,269.778818 117.104824,274.153687 C115.77046,278.364858 115.103278,281.607196 115.103278,283.880701 C115.103278,287.290958 114.977276,294.376292 114.600179,298.353216 C114.348781,301.004499 113.578067,307.645268 112.288038,318.275523 C111.940576,324.01084 111.940576,328.361754 112.288038,331.328265 C112.80923,335.778032 114.118261,342.864331 116.232131,349.144454 C118.346002,355.424577 121.129742,362.059449 122.168192,367.182487 C123.206642,372.305525 124.14188,377.024947 124.14188,382.735178 C124.14188,388.445408 123.743747,393.570837 124.72985,396.337949 C125.715954,399.105061 128.364023,403.336844 130.664226,409.803898 C131.936679,413.381417 134.014256,419.094749 136.009146,424.961586 L136.467633,426.317294 C137.912303,430.613284 139.276346,434.90982 140.213297,438.433308 C140.331147,438.876495 140.450877,439.323424 140.572217,439.7729 L140.816965,440.674894 C143.037577,448.817036 145.721696,457.526286 147.297798,459.831356 C149.019836,462.349859 151.943465,465.890565 154.073415,465.890565 C156.203364,465.890565 158.905983,466.050167 159.722996,469.258112 C160.540008,472.466058 160.180573,472.807247 158.110891,475.97204 C156.041208,479.136833 156.830685,481.991068 159.39564,484.629824 C161.10561,486.388995 164.114254,489.346073 168.421573,493.501058 L174.461929,499.137463 C178.259605,502.857326 180.493652,505.033309 181.164068,505.665411 C182.169693,506.613565 183.60633,506.340666 184.471255,505.250933 C185.336179,504.1612 185.52077,500.724312 184.815885,499.137463 C184.369459,498.132458 183.264075,495.924034 182.101847,493.705291 L181.73364,493.005684 C181.180603,491.959933 180.629032,490.940046 180.142922,490.07283 C178.522556,487.182109 175.929348,482.258717 174.461929,480.267033 C173.841097,479.424398 172.881789,478.27126 171.914773,477.089596 L171.388534,476.443918 C170.255309,475.046164 169.195318,473.680176 168.754544,472.811397 C167.872997,471.073839 168.228584,469.26689 167.533649,466.535075 C166.838714,463.803261 165.044127,460.95243 163.046754,457.627167 C161.049382,454.301905 159.694504,452.521236 159.39564,450.816054 C159.303135,450.28826 159.253578,449.464109 159.246971,448.343602 L159.246971,447.805403 C159.253578,446.593709 159.303135,445.08566 159.39564,443.281255 C160.426527,443.08282 161.121222,443.187473 161.479725,443.595213 C162.017478,444.206824 162.257046,447.068734 164.895347,451.612473 C166.654215,454.641632 168.86504,457.556609 171.527822,460.357406 C170.520634,461.070007 170.017041,461.942061 170.017041,462.973568 C170.017041,464.520828 171.377571,465.867819 172.554518,467.036755 C173.731465,468.205691 175.740866,470.924875 177.541859,474.725397 C179.342851,478.525919 181.305116,481.932042 181.892459,485.065509 C181.934412,485.289328 181.976261,485.51421 182.01845,485.739409 L182.146486,486.41521 C182.666287,489.116255 183.299363,491.755594 184.815885,493.044949 C186.585161,494.549197 187.728942,495.272647 188.704249,495.272647 C189.679555,495.272647 190.634499,494.775501 192.227807,496.956482 C193.821116,499.137463 194.352402,499.511934 195.137915,501.33165 C195.340628,501.801254 195.451932,502.280754 195.550932,502.756517 L195.624111,503.112426 C195.880815,504.354162 196.189008,505.546663 197.979539,506.443329 C200.622702,507.766979 202.292198,508.361385 202.950409,510.717192 C203.60862,513.072999 203.489738,515.439465 204.947905,517.260985 C206.406071,519.082505 209.628469,521.521903 211.861344,523.102625 C214.094219,524.683348 218.028864,527.336079 218.862702,530.371013 C219.69654,533.405948 219.544072,535.848313 220.72486,536.38898 C221.905648,536.929647 224.131233,536.665813 225.348136,535.181928 C226.565039,533.698042 227.054753,531.625576 226.201445,529.256987 C225.348136,526.888397 222.270031,523.358557 221.194821,522.331125 C220.478015,521.64617 219.144563,520.249081 217.194468,518.139859 L222.140983,518.139859 C222.470228,516.720966 221.8434,515.262053 220.2605,513.763119 C217.886149,511.514718 216.262639,511.084537 213.350401,510.717192 C210.438163,510.349847 208.671829,509.364669 209.06985,507.307801 C209.467871,505.250933 210.809655,505.432962 210.411844,503.140217 C210.014034,500.847472 207.650176,499.140738 205.697273,497.658088 C203.744371,496.175438 195.911291,490.158334 194.069549,486.794093 C192.227807,483.429852 190.924232,479.704817 191.57602,477.838428 C192.227807,475.97204 193.375328,475.664896 195.137915,475.97204 C196.900503,476.279183 197.979539,477.281595 197.979539,478.453946 C197.979539,479.626297 196.988885,481.054012 197.979539,482.269588 C198.970192,483.485164 202.027413,486.200601 204.625179,487.946085 C207.222945,489.691569 212.874606,493.036011 212.874606,494.647385 C212.874606,496.25876 212.683349,498.205538 213.803254,499.507097 C214.923159,500.808656 218.159868,503.89841 221.194821,507.307801 C223.218123,509.580728 226.126518,512.898456 229.920007,517.260985 C231.717927,518.968794 233.298642,520.183287 234.662153,520.904464 C236.70742,521.986229 239.659085,522.686813 243.221114,525.9719 C245.5958,528.161958 248.907298,531.428636 253.155608,535.771936 L259.735612,542.871555 L265.025179,547.745405 L272.249402,552.974066 L277.953909,558.75176 L283.837362,563.527925 L292.099999,567.799955 C294.665546,568.943444 296.791224,569.702907 298.477033,570.078345 C301.005746,570.641501 303.236854,570.332247 304.094423,572.535927 C304.951992,574.739607 306.104853,577.725393 308.549224,579.096843 C310.993594,580.468294 317.039834,583.135152 319.539131,583.516587 C322.038428,583.898022 328.959447,584.865878 330.8508,587.099055 C332.742153,589.332231 336.131534,593.060633 340.002028,593.060633 C341.220517,593.060633 342.753995,592.854694 344.309748,592.654693 L344.859286,592.584696 C348.064756,592.181845 351.218674,591.909826 351.766564,593.61767 C352.611881,596.252629 354.283021,599.510223 360.96411,599.510223 C367.645199,599.510223 371.584858,600.1618 376.495099,601.313015 C381.40534,602.46423 392.916389,604.920863 397.580211,605.388907 C400.01351,605.633104 406.905552,606.096525 413.85282,606.620311 L415.010454,606.708141 C420.986405,607.164532 426.821902,607.65914 429.705194,608.09053 C430.815941,608.256716 431.990321,608.452532 433.184428,608.662742 L433.98294,608.804847 L435.185345,609.023808 C440.262463,609.959038 445.256419,611 446.862411,611 C449.060084,611 450.538119,609.606749 448.078452,608.09053 C445.618784,606.574311 443.659208,606.321966 442.177796,605.855437 C441.190188,605.544417 440.084706,604.881046 438.861349,603.865322 L451.403573,603.865322 C453.28894,603.865322 452.841004,607.014112 458.412155,606.709314 C463.983307,606.404517 461.446253,605.774129 467.635787,604.631193 C473.825321,603.488257 480.615618,603.857547 483.249238,604.24437 C485.882859,604.631193 492.884688,605.088653 495.128476,603.865322 C496.624334,603.049768 497.521908,601.598069 497.821196,599.510223 C498.942488,600.315589 500.264845,600.91652 501.788268,601.313015 C504.073403,601.907759 505.912641,601.437062 505.912641,599.991858 C505.912641,599.028388 504.53785,598.526099 501.788268,598.484991 C502.965524,597.273989 504.340315,596.467194 505.912641,596.064604 C508.271129,595.460719 511.183976,595.884745 515.213503,595.467089 C519.24303,595.049433 528.137444,593.955953 534.367999,591.745625 C540.598553,589.535296 545.434202,587.287837 552.16063,585.402212 C558.887059,583.516587 563.199124,583.41819 566.997177,583.949334 C570.795231,584.480478 573.1088,582.857836 576.110594,579.633579 C579.112388,576.409322 580.839273,574.227106 583.584015,574.227106 C586.328756,574.227106 589.023419,573.807773 592.564985,571.728644 C596.106551,569.649515 598.473322,568.526887 604.963418,566.027406 C609.290149,564.361085 615.793531,561.474984 624.473562,557.369103 L633.230051,552.974066 L640.503114,547.347171 L650.052116,540.990459 C652.091949,539.694893 653.510246,538.27104 654.307008,536.7189 C655.10377,535.166761 655.749148,533.674798 656.243143,532.24301 L665.938163,527.481518 C669.065617,525.744239 671.325704,524.402 672.718424,523.4548 C674.807505,522.033999 675.893121,520.772186 675.893121,518.139859 C675.893121,515.507532 676.502203,513.425219 677.971412,513.425219 C679.440621,513.425219 682.073626,514.479933 684.092469,511.877537 C686.111312,509.275142 685.893092,507.588395 688.51793,504.460022 C691.142768,501.33165 694.885866,497.591626 695.974431,494.274477 C696.700141,492.063045 697.186173,489.748093 697.432528,487.32962 C698.38898,487.431749 700.114521,486.677045 702.609152,485.065509 C706.351097,482.648206 709.957742,478.784872 713.279522,473.752642 C716.601303,468.720413 721.227064,459.679488 725.438895,453.935745 C729.650726,448.192002 734.547482,444.520014 736.815682,440.48239 C739.083883,436.444766 740.730846,432.6079 740.730846,431.191496 C740.730846,429.775093 740.190636,429.121335 738.146108,431.191496 C736.78309,432.571604 734.736241,435.773295 732.005563,440.796568 L727.003168,447.696122 L720.941472,455.613287 L711.567463,466.535075 C708.527995,469.908298 706.031003,472.749916 704.076488,475.059928 L703.772389,475.420249 C700.776475,478.979282 698.389752,481.708738 697.759674,483.387124 C697.339622,484.506047 697.067739,485.542533 696.944024,486.49658 C695.968278,486.231826 695.202683,486.509506 694.647241,487.32962 C693.814076,488.559792 692.44259,489.848214 691.502453,491.030237 C690.690517,492.051075 689.148615,492.137215 687.939359,492.141725 L687.395616,492.141115 C686.147732,492.141115 685.865064,491.030237 684.092469,491.030237 C682.319875,491.030237 682.586896,492.727639 682.586896,493.501058 C682.586896,494.274477 684.373244,495.566738 683.48007,496.956482 C682.884621,497.882978 680.355638,499.944223 675.893121,503.140217 L666.646577,510.717192 L655.369979,519.269027 L643.808779,528.151475 L633.230051,534.825369 C627.406455,538.287245 623.678277,540.493745 622.045517,541.444869 C619.596379,542.871555 617.424981,543.571031 614.896496,543.571031 C612.368011,543.571031 613.096612,541.732754 614.896496,540.990459 C616.69638,540.248165 620.900099,537.739344 623.449753,535.771936 C625.999408,533.804528 627.400228,530.371013 630.31514,530.371013 C633.230051,530.371013 634.807128,529.317606 636.79782,527.481518 C637.15172,527.155102 637.469124,526.827194 637.782945,526.489155 L638.018153,526.233591 C639.392281,524.730143 640.855336,522.991424 645.163585,520.293916 C646.813553,519.260828 648.729795,518.113241 650.681434,516.954106 L651.519345,516.456926 L652.357551,515.960134 C656.403089,513.562807 660.31746,511.242141 662.04859,509.913169 C664.854214,507.759319 668.354361,501.829656 670.839339,499.137463 C673.324318,496.44527 677.663766,491.26248 681.759234,489.604282 C685.854702,487.946085 686.675359,486.743895 687.395616,485.065509 C688.115873,483.387124 690.113626,479.795964 692.063474,476.960055 C694.013322,474.124147 695.29338,472.959468 698.620653,471.869166 C701.947926,470.778864 702.088213,469.33146 701.458595,468.184108 C700.828978,467.036755 699.808777,464.718486 698.620653,464.211172 C697.432528,463.703858 695.416029,464.209546 692.407989,467.362862 C689.399948,470.516179 687.058981,472.896805 686.397872,474.158527 C685.736762,475.420249 684.971605,476.681972 683.779251,475.420249 C682.586896,474.158527 683.697752,470.352378 681.759234,471.307317 C679.820715,472.262257 679.128171,474.056141 678.549792,477.838428 C677.971412,481.620716 676.312736,484.757832 675.244214,485.065509 C674.531866,485.270628 673.586437,485.270628 672.407927,485.065509 L672.407927,481.102683 C670.577488,481.390747 669.159654,482.411332 668.154423,484.164436 C667.149192,485.91754 664.799653,489.620277 661.105805,495.272647 C659.233138,497.852065 657.466106,499.871733 655.80471,501.33165 C654.226383,502.718571 652.413789,503.915896 651.092438,504.715865 L650.692345,504.955036 C650.119239,505.293252 649.673491,505.537405 649.432212,505.665411 C648.627949,506.0921 647.40417,506.296778 646.283877,503.814214 C645.163585,501.33165 644.298088,500.616837 647.175102,499.137463 C650.052116,497.658088 653.447692,495.083853 654.994204,492.141115 C656.025212,490.179289 657.679703,486.661634 659.957676,481.588151 L664.377072,481.588151 C665.938163,481.588151 666.823928,479.511438 668.831634,476.63204 C670.839339,473.752642 673.799881,470.112403 677.107212,467.362862 C680.414544,464.613321 681.23277,463.672194 683.48007,460.357406 C685.727371,457.042618 686.150514,452.11099 689.106994,447.696122 C691.077981,444.752877 695.043102,440.181391 701.002358,433.981662 L706.185738,426.732832 L710.408609,418.401837 L715.02974,412.00002 L719.396601,405.211284 L723.722825,396.337949 L725.438895,389.317125 L725.438895,382.735178 C727.332589,381.061073 728.91686,379.950673 730.19171,379.403977 L730.413472,379.313353 C732.380417,378.550401 733.182459,377.483799 734.451194,374.953352 C735.719929,372.422906 736.390872,366.042341 737.113858,363.090621 C737.836843,360.1389 739.717167,356.547234 740.730846,351.261753 C741.744524,345.976273 742.723273,342.088273 743.209705,338.514599 C743.386589,337.215081 743.625774,335.503811 743.858559,333.740584 L743.974101,332.856306 C744.336279,330.052931 744.653712,327.269631 744.653712,325.934546 C744.653712,323.615714 746.342257,319.834365 746.342257,317.411502 L746.342257,307.217656 C746.342257,306.170572 746.671741,300.773487 747.330708,291.0264 L747.330708,283.460822 C747.758613,278.959142 747.972565,274.754386 747.972565,270.846555 C747.972565,264.984808 747.192784,255.19779 746.342257,251.83703 C745.491731,248.476269 745.027175,245.33538 745.956106,242.345278 C746.885036,239.355176 749.108766,236.749441 747.330708,235.380442 C745.55265,234.011442 741.188347,235.601417 741.188347,231.240611 C741.188347,226.879806 743.105453,225.477288 742.1469,222.147415 C741.188347,218.817542 738.643471,217.493907 736.815682,213.101252 C734.987893,208.708597 735.485256,206.121092 736.815682,203.609638 C738.146108,201.098183 739.476534,199.373516 738.146108,197.394884 C736.815682,195.416251 734.870715,193.906667 734.451194,189.121558 C734.031674,184.336449 735.07329,180.012335 735.07329,175.900215 C735.07329,175.443312 735.079402,174.98295 735.087353,174.524832 L735.097503,173.976533 C735.163915,170.515415 735.237845,167.315686 733.44378,166.881115 C732.027412,166.538032 731.01731,167.326367 730.413472,169.246121 C730.441916,165.297156 730.0264,161.644663 729.166924,158.28864 C727.877712,153.254606 726.668577,148.511775 725.438895,145.051429 C724.209213,141.591083 721.636498,138.467092 718.702079,136.231121 C717.745203,135.501999 716.564588,134.514742 715.396785,133.485039 L714.930908,133.071405 C712.687891,131.066175 710.610655,129.009783 710.408609,128.460883 C710.088123,127.590215 712.822749,126.139893 710.737595,124.516871 C708.652442,122.893849 703.989044,124.019602 705.087391,121.668408 C706.185738,119.317213 708.599088,119.267827 706.185738,115.523849 C703.772389,111.77987 700.994409,111.057607 700.275525,106.160964 C699.556641,101.264321 698.810649,99.4442885 695.974431,95.4600398 C694.083619,92.8038739 689.918832,87.1737702 683.48007,78.5697286 L675.244214,67.7732427 L667.450973,59.3959078 L662.574377,54.0025779 L657.918471,48.6180922 C655.296814,44.9566173 653.478728,42.5812314 652.464212,41.4919343 C650.942439,39.8579888 648.908436,37.9308382 646.684923,37.3781728 C645.202582,37.0097292 643.964114,36.8760207 642.969521,36.9770474 C641.692097,34.5763262 640.177889,32.2947001 638.426895,30.1321688 C636.675902,27.9696376 633.971983,25.5646157 630.31514,22.9171033 L620.03779,16.6580714 L612.161196,11.7383678 L601.119391,5.71198925 L593.434619,1.83359073 L581.360409,-3.88642565 L569.4994,-8.95476865 L556.227255,-14.3480141 L541.355813,-18.9768275 L523.525791,-24.3483352 L511.212124,-26.9296102 C508.492008,-27.4930672 506.415887,-28.0290821 504.983761,-28.5376549 C503.551636,-29.0462277 501.648957,-29.9741732 499.275725,-31.3214916 C501.442232,-31.8553013 503.34491,-32.1222062 504.983761,-32.1222062 C506.622612,-32.1222062 509.618143,-31.7117456 513.970354,-30.8908244 C514.800106,-30.6441261 515.076784,-30.7876818 514.800388,-31.3214916 C514.523993,-31.8553013 513.502915,-33.0753203 511.737153,-34.9815487 C510.043016,-37.4690327 508.493916,-38.8715949 507.089854,-39.1892353 C504.983761,-39.665696 503.706316,-39.1315577 502.835573,-38.3223503 C501.96483,-37.513143 501.315763,-36.4003375 499.998971,-36.4003375 C498.682179,-36.4003375 497.824776,-38.5404122 496.407711,-39.1892353 C494.990645,-39.8380585 493.239188,-40.3347546 491.672857,-39.5833535 C490.628637,-39.0824194 488.259139,-37.4422709 484.564364,-34.6629081 C484.771857,-36.5188267 484.621087,-37.8671204 484.112054,-38.7077892 C483.348504,-39.9687923 481.301959,-40.3676043 478.760029,-40.3676043 C476.218098,-40.3676043 474.023295,-40.2557618 472.360075,-40.8272334 C470.696855,-41.398705 468.981307,-43.6417364 466.990963,-42.8217699 Z M190.796752,509.52397 C189.972841,508.563821 189.336309,508.759905 189.217396,511.498501 C189.098483,514.237097 190.796752,516.228051 191.954828,517.924614 C193.112904,519.621177 191.686961,519.529362 190.796752,518.771228 C189.906542,518.013094 190.354354,518.047327 187.714828,516.751264 C185.075302,515.455201 184.668873,516.715188 185.205809,518.047327 C185.742744,519.379467 187.897052,521.98604 192.201021,525.763144 C195.070333,528.281213 197.863818,530.349648 200.581475,531.968447 C203.162714,533.960841 204.968475,535.36253 205.998758,536.173512 C207.544183,537.389986 209.490758,539.323155 211.014155,539.698381 C212.537552,540.073608 213.333163,540.347208 213.897545,538.933418 C214.461928,537.519628 212.56738,536.852286 211.32309,535.839166 C210.0788,534.826046 208.33286,532.863011 206.258786,530.893093 C204.184712,528.923174 203.978137,528.497341 202.674402,526.58123 C201.370667,524.665119 202.674402,522.634959 203.294077,521.428468 C203.913753,520.221978 204.089882,519.108682 202.674402,517.633202 C201.258922,516.157722 200.581475,517.23193 199.92829,518.047327 C199.275105,518.862724 198.459966,519.132182 197.681828,518.639428 C196.90369,518.146674 195.574146,516.442821 193.789988,514.30411 C192.005831,512.165399 191.620662,510.484119 190.796752,509.52397 Z" id="Circle" fill="#C6DAF2" mask="url(#mask-2)"></path>
    </g>
</svg>