<?xml version="1.0" encoding="UTF-8"?>
<svg width="175px" height="138px" viewBox="0 0 175 138" version="1.1" xmlns="http://www.w3.org/2000/svg" xmlns:xlink="http://www.w3.org/1999/xlink">
    <title>Menu Logo</title>
    <defs>
        <rect id="path-1" x="0" y="0" width="175" height="138"></rect>
    </defs>
    <g id="Layout" stroke="none" stroke-width="1" fill="none" fill-rule="evenodd">
        <g id="Group" transform="translate(-63.000000, 0.000000)">
            <g id="Menu-Logo" transform="translate(63.000000, 0.000000)">
                <g id="Circle">
                    <mask id="mask-2" fill="white">
                        <use xlink:href="#path-1"></use>
                    </mask>
                    <g id="Mask"></g>
                    <path d="M84.0037433,-32 L89.8378384,-31.7700232 L96.9960318,-31.0547983 L102.827284,-30.33072 L107.690868,-29.3356958 L112.762626,-28.0497754 L116.046261,-27.0722975 L119.215145,-26.0027965 L121.65553,-25.1284838 L122.153635,-25.0186638 L122.622867,-25.4401963 L131.793056,-21.0565895 L135.421765,-18.901738 L141.568253,-14.549796 L145.912996,-10.8736618 L149.91579,-7.07017875 L152.365355,-4.40844174 L155.124103,-1.14224456 L157.51418,1.96788815 L160.399043,6.1505981 L162.690255,9.91886283 L164.660786,13.6508532 L165.603623,15.4583531 C165.649423,15.7759401 165.773176,16.032605 165.974883,16.2283479 C166.277444,16.5219621 166.94613,17.0042821 167.261448,17.412742 C167.47166,17.6850485 168.115039,19.27299 169.191584,22.1765664 L170.958943,27.1604285 L172.308809,31.9060634 L173.226995,35.8152732 L173.965975,39.3946401 L174.396496,43.3103219 L174.764573,47.2904919 L175,51.2992162 L175,55.386132 L174.396496,62.9419203 L173.539959,68.9708048 L172.542165,73.6206498 L170.691475,80.0704842 L168.679546,85.6038495 L166.377435,90.6679325 L163.746282,95.6320449 L160.862502,100.18953 L158.383731,103.764603 L155.341867,107.669826 L151.970041,111.45594 L148.108798,115.330846 L143.892496,118.95934 L140.205824,121.704217 L136.805148,124.18726 L133.699557,126.025206 L129.592794,128.386878 L125.422152,130.407793 L122.83942,131.420746 L118.981602,132.906898 L115.605167,134.023638 L112.509645,134.953107 L108.136369,136.008588 L104.175729,136.650285 L98.6707524,137.434295 L93.7685829,138 L92.4195932,138 L88.9201036,137.683826 L85.3253106,137.010546 L80.8314312,136.650285 L76.7764279,136.008588 L72.6191289,134.953107 L68.9944911,133.785382 L64.8082444,132.318384 L61.317418,130.808027 L58.3472085,129.480912 L53.6940995,126.974691 L48.9071714,124.18726 L45.4191375,121.384837 L41.6540286,118.004588 L37.7817081,114.28891 L35.2562725,111.689843 L32.8750511,108.938947 L30.8581523,106.230593 L29.4127495,103.764603 C28.7592019,102.724341 28.3633401,102.066515 28.2251641,101.791126 C28.0179,101.378042 27.8825943,99.7275493 27.4494199,99.1269835 C27.160637,98.7266063 26.3528503,97.7569983 25.0260599,96.2181595 L22.8508785,93.796318 L20.1767762,90.3681272 L17.8200935,86.9527853 L15.8365568,83.2190712 L14.2248427,79.6861862 L12.8478798,76.6082087 C11.7432098,73.9412846 11.1051268,72.4124234 10.9336309,72.021625 C10.6763869,71.4354275 10.279959,71.8118554 10.0134436,71.2803831 C9.83576674,70.9260683 9.51594701,69.9023173 9.05398445,68.2091302 L8.30423957,65.2159563 L7.89548183,62.9419203 L7.59970488,59.9608339 L7.33044714,56.2799018 L7.08830156,52.2187969 L7.33044714,47.8381643 L7.59970488,45.0314547 L7.5067816,43.7977196 C7.23356632,44.147148 7.06697749,44.558393 7.00701511,45.0314547 C6.94705274,45.5045163 6.7384061,47.1840883 6.3810752,50.0701706 L6.24422797,52.4747058 L6.3810752,56.0520764 L6.55931203,60.9137945 L6.70215217,63.4097943 L6.70215217,66.4228603 C6.30115347,65.9760736 6.0406969,65.5737723 5.92078247,65.2159563 C5.80086803,64.8581404 5.64374195,63.8799772 5.44940422,62.2814668 C5.45748208,61.7392356 5.41155484,61.4142013 5.31162249,61.306364 C5.16172397,61.144608 5.08854457,61.0771075 4.97530281,61.306364 C4.89980831,61.4592017 4.94200299,62.2659958 5.10188685,63.7267464 L5.44940422,67.4484273 L6.24422797,71.2803831 L7.08830156,75.0695573 L8.30423957,79.4095723 L10.0134436,84.3006303 L11.7305414,88.5105943 L13.0127378,91.3554644 L14.0292102,93.5388855 C13.6323035,93.4249009 13.2934794,93.1997947 13.0127378,92.8635669 C12.5916256,92.3592252 11.7908913,91.3012676 11.2638718,90.176145 C10.9125255,89.4260632 10.3338567,88.1267351 9.5278655,86.2781607 L8.46043025,84.0662934 L7.33044714,81.7009711 C7.03040838,80.6319933 6.77336334,80.0052997 6.55931203,79.8208905 C6.23823506,79.5442766 6.29717765,79.5514819 6.10898006,79.6861862 C5.983515,79.775989 6.02859763,80.3284497 6.24422797,81.3435681 C5.76231475,80.6266536 5.45144626,80.074193 5.31162249,79.6861862 C5.17179873,79.2981794 4.81957885,78.3743326 4.25496284,76.9146459 L3.25360391,73.9444478 L2.29632961,70.7478994 L1.60803374,68.0825356 L0.983877344,64.6846392 L0.507589261,61.306364 L0.143441049,57.202179 L0,53.6141861 L0.143441049,49.2510537 L0.280198466,45.5551966 L0.983877344,40.4945861 L1.4709121,37.2105025 L2.29632961,33.5026831 L2.71195219,31.7166493 L2.90642185,29.172842 L3.25360391,27.6414573 L3.79021563,25.55108 L4.86709449,22.6631472 L6.55931203,18.6988509 L8.30423957,14.9766452 L10.0134436,11.6157825 L11.7305414,8.7292346 L13.8263423,5.5855217 L16.4350026,1.96788815 L19.2878028,-1.59414681 L21.8935361,-4.40844174 L24.3045723,-6.92455974 L27.6323273,-9.89553696 L31.3101428,-12.9245361 L34.3700817,-15.228748 L37.1862121,-17.1477838 C37.6413338,-17.4552398 38.015946,-17.7039599 38.3100486,-17.893944 C38.7512026,-18.1789201 39.3637721,-19.3060169 39.7719063,-19.5533633 C40.0439958,-19.718261 40.9007062,-20.2193364 42.3420374,-21.0565895 L45.6365833,-22.8794627 L50.1212131,-24.8710915 L54.8182963,-26.7167951 L59.0915166,-28.2080435 L64.6211283,-29.6813603 L69.58096,-30.7468484 L73.0776296,-31.2143816 L78.5431217,-31.7700232 L84.0037433,-32 Z M48.2142848,111.055985 C47.8097167,110.863143 47.9409961,111.213159 47.598079,111.429916 C47.3694676,111.574421 46.8367746,111.591685 46,111.481707 C46.2751844,111.727842 46.5208216,111.994701 46.7369116,112.282284 C47.0610466,112.713659 46.9987352,113.298918 47.5230179,113.653514 C47.8725396,113.88991 48.3135792,113.98113 48.8461365,113.927171 C48.8454846,114.120475 48.9638312,114.344237 49.2011762,114.598457 C49.5571938,114.979788 49.7820212,114.900089 50.095649,115.095371 C50.3047342,115.225559 50.5698174,115.405531 50.8908986,115.635287 L52.3105876,116.644554 L53.5555656,117.502691 L55.0437644,118.525393 L56.4799721,119.383161 L58.7166235,120.650228 C60.0517227,121.209643 61.0280073,121.634872 61.6454771,121.925917 C62.5716819,122.362484 62.4172841,122.446539 63.2995593,122.988239 C64.1818345,123.529939 64.7078118,123.466227 65.204381,123.514589 C65.7009503,123.562951 66.6215878,124.120276 67.1036452,124.31246 C67.5857026,124.504643 68.4785941,124.857728 69.1756862,124.950441 C69.8727783,125.043153 70.6507545,125.010252 70.8499698,124.813811 C71.0491851,124.617369 71.0888682,124.328167 70.7263625,124.196257 C70.3638568,124.064347 70.2422557,124.256909 69.5926376,124.073768 C68.9430195,123.890627 69.207976,123.433511 69.0718476,123.219024 C68.9810953,123.076033 68.0246861,122.615642 66.20262,121.837851 L65.0425522,121.338737 L63.761212,120.722997 L62.5455445,120.167254 L61.125544,119.531343 L59.5685789,118.83653 L57.8754481,118 L56.400532,117.196746 L55.1822502,116.45375 L53.7005464,115.54463 L52.3716442,114.655737 L51.2672861,113.738433 C50.5197819,113.139075 49.9155547,112.637472 49.4546045,112.233623 C48.7631791,111.62785 48.618853,111.248828 48.2142848,111.055985 Z M95.195723,-11.964027 C94.7933871,-11.7985291 94.7760682,-11.3456049 94.5877434,-11.0558872 C94.3994187,-10.7661696 93.9654244,-10.5697465 93.4615689,-10.667958 C92.9577133,-10.7661696 91.979708,-11.1336822 91.4815651,-11.2308548 C90.9834222,-11.3280275 90.7720864,-11.3104016 90.2859796,-11.3104016 C89.9619084,-11.3104016 89.518555,-11.2514952 88.9559192,-11.1336822 C88.6963692,-11.531308 88.45023,-11.7020108 88.2175016,-11.6457904 C87.868409,-11.56146 87.2594612,-11.0558151 86.9675442,-10.7661696 C86.6756271,-10.476524 86.2570248,-10.5467008 85.8244082,-10.9285512 L85.6107704,-11.1222915 C85.2559756,-11.4459828 84.8916088,-11.7541218 84.2789706,-11.7541218 C83.5438048,-11.7541218 83.0504811,-11.5331584 82.8047519,-11.2308548 C82.5590227,-10.9285512 82.388911,-10.847921 81.8134372,-10.847921 C81.429788,-10.847921 80.640497,-10.7879334 79.4455644,-10.667958 C78.8867239,-10.6788371 78.514174,-10.656636 78.3279148,-10.6013546 C78.0485261,-10.5184326 77.4058956,-10.1587684 77.0678325,-10.0881144 C76.7297693,-10.0174604 76.5958986,-10.667958 76.2617182,-10.667958 C75.9275378,-10.667958 75.5034066,-10.1415063 75.3023998,-9.89218809 C75.1013929,-9.64286986 74.611655,-9.46053381 74.0191311,-9.39922494 C73.4266072,-9.33791607 71.228192,-9.36754195 69.3439805,-8.75643508 C68.0878395,-8.34903049 66.1526974,-7.63828973 63.538554,-6.62421279 L60.7712294,-5.46008732 C60.0504505,-5.25655225 59.5311451,-4.97562757 59.2133134,-4.61731327 C58.7365659,-4.07984183 58.8735317,-3.67219787 58.4634588,-3.35098759 C58.0533859,-3.0297773 57.6634017,-3.55924555 57.0446421,-3.21073415 C56.4258825,-2.86222275 56.7003767,-2.32267591 56.2913636,-1.94839105 C56.0186881,-1.69886781 55.6840041,-1.64378219 55.2873115,-1.7831342 C54.973817,-1.98640405 54.7512737,-2.11476677 54.6196816,-2.16822235 C54.4222935,-2.24840572 53.9352332,-2.52570591 52.5679307,-1.63224493 C51.2006282,-0.738783946 51.373446,-0.822378768 50.7434735,-0.178045159 C50.113501,0.46628845 50.2084401,0.70957138 50.5845586,0.811969772 C50.8353043,0.880235367 51.0006415,0.944048646 51.0805703,1.00340961 L48.3283011,1.59844134 C48.4713155,1.31702865 48.5070691,1.08547653 48.4355619,0.903784986 C48.3283011,0.631247671 48.1088054,0.620529936 47.7578174,0.811969772 C47.5823233,0.90768969 46.9738773,1.44216268 46.348887,2.02137897 L46.0088454,2.33938428 C45.5038302,2.81594367 45.0384223,3.27449908 44.8406918,3.49924802 C44.5184642,3.86550555 43.6466683,4.97632218 42.2253038,6.83169792 L40.4010605,9.01387951 C39.7926293,9.84183038 39.4323122,10.3386664 39.3201092,10.5043876 C39.2079062,10.6701089 38.8197825,10.9930713 38.1557379,11.473275 L38.1557379,10.1276727 C38.1200226,9.93588211 38.0126959,9.81545897 37.8337577,9.7664033 C37.5653504,9.69281979 37.1124546,10.209255 36.6853375,10.8087542 C36.4005928,11.2084203 35.7262264,12.0753375 34.6622384,13.4095059 L32.8904302,15.9460631 L31.4505899,18.1058826 L29.7237468,20.5716081 L27.9580468,23.1097602 C27.1839913,24.4578811 26.7072738,25.3668319 26.5278942,25.8366128 C26.2588248,26.5412841 25.9602247,27.992041 25.8908548,29.8521179 C25.821485,31.7121949 25.8035334,32.5024435 25.4918857,33.4348587 C25.1802381,34.3672738 25.1143602,34.3803865 24.9553003,34.6217557 C24.7962405,34.8631248 24.1680455,35.4108094 23.8858297,36.00616 C23.6976858,36.4030604 23.2800037,37.3355304 22.6327834,38.80357 C22.3115336,39.560805 22.1108001,40.0521968 22.0305828,40.2777456 C21.9102568,40.6160687 21.9204188,41.0624109 22.1483439,41.4509522 C22.376269,41.8394935 22.6327834,41.8653269 22.6327834,42.5535048 C22.6327834,43.01229 22.5445856,43.847515 22.36819,45.0591797 L21.7551914,49.2151175 C21.500627,49.2200834 21.3394201,49.1440637 21.2715707,48.9870585 C21.1697966,48.7515506 21.2077744,47.1312237 21.2077744,46.8995163 C21.2077744,46.7450447 21.1483793,46.5302766 21.0295892,46.255212 C20.5008729,46.9830975 20.2119435,47.4482459 20.162801,47.6506572 C20.122759,47.815585 20.1010435,48.8380098 20.0976545,50.7179317 L20.0976235,51.8283847 C20.0977723,51.9280092 20.0979591,52.0294054 20.0981837,52.1325732 L20,57.8551007 C20.0275301,59.0263311 20.0817972,59.8261601 20.162801,60.2545877 C20.2438049,60.6830153 20.4325596,61.5191486 20.7290651,62.7629875 C20.8974112,62.3246456 21.0299153,61.9822852 21.1265775,61.7359065 C21.2715707,61.3663385 21.2712261,60.7382029 21.4789614,60.4067282 C21.6174517,60.1857452 21.964766,59.94684 22.5209045,59.6900126 C22.6362385,59.1289721 22.6939054,58.6342426 22.6939054,58.2058243 L22.6939054,55.1724384 L22.9727149,53.891175 L23.4946722,52.3421673 L24.2919469,50.4480482 C24.4714442,49.9519786 24.6138795,49.6366226 24.719253,49.5019803 C24.8773132,49.3000169 25.0982747,48.9633553 25.0267875,49.8257622 C24.9791294,50.4007001 24.7929857,51.1296696 24.4683564,52.0126708 C24.1986228,52.8626319 24.0637559,53.5170487 24.0637559,53.9759213 C24.0637559,54.6642301 24.0382856,56.0942974 23.9620576,56.8969794 C23.911239,57.4321007 23.7554438,58.7724394 23.4946722,60.9179955 C23.424435,62.0755823 23.424435,62.9537484 23.4946722,63.5524939 C23.6000281,64.450612 23.8646409,65.8808742 24.2919469,67.1484219 C24.719253,68.4159696 25.2819693,69.7551182 25.4918857,70.7891259 C25.7018021,71.8231336 25.8908548,72.7756774 25.8908548,73.928201 C25.8908548,75.0807246 25.8103746,76.1152149 26.0097094,76.6737145 C26.2090442,77.2322141 26.7443354,78.0863355 27.2093076,79.3916124 C27.6742798,80.6968894 28.6710812,83.4108332 29.1395945,85.1700255 C29.2034827,85.4099154 29.2701037,85.6552381 29.3384068,85.9013401 L29.4769446,86.3932045 C29.874059,87.7819511 30.3026977,89.0961036 30.5716836,89.4888976 C30.9197831,89.9972192 31.510777,90.7118572 31.9413334,90.7118572 C32.3718899,90.7118572 32.918208,90.7440704 33.0833621,91.3915456 C33.2485162,92.0390208 33.1758586,92.1078846 32.7574848,92.7466502 C32.339111,93.3854158 32.4986989,93.9614999 33.0171891,94.494093 C33.3628492,94.849155 33.9710285,95.4459964 34.8417268,96.2846172 L36.0627482,97.4222401 C36.8304256,98.1730383 37.2820245,98.6122276 37.4175452,98.7398078 C37.6208261,98.9311782 37.9112337,98.8760977 38.0860729,98.6561516 C38.2609122,98.4362054 38.298226,97.7425217 38.1557379,97.4222401 C38.0726199,97.2354092 37.8764997,96.8425239 37.6624798,96.4317437 L37.4768687,96.0796524 C37.3840895,95.9058042 37.2930135,95.7385433 37.2111267,95.5926813 C36.8835796,95.0092331 36.3593782,94.0155208 36.0627482,93.6135297 C35.7661182,93.2115386 35.0872345,92.4594221 34.909035,92.1087223 C34.7308356,91.7580225 34.8027153,91.3933172 34.6622384,90.8419418 C34.5217614,90.2905664 34.1589966,89.7151693 33.7552398,89.0440154 C33.351483,88.3728615 33.0776026,88.0134605 33.0171891,87.6692953 C32.9769135,87.4398519 32.9769135,86.9329235 33.0171891,86.1485101 C33.2255767,86.1084591 33.3660051,86.1295817 33.4384742,86.2118779 C33.5471778,86.3353222 33.595605,86.9129555 34.1289217,87.8300403 C34.4844661,88.4414302 34.931371,89.0297743 35.4696362,89.5950727 C35.2660394,89.7389004 35.164241,89.9149113 35.164241,90.1231054 C35.164241,90.4353966 35.439264,90.7072662 35.6771767,90.9431983 C35.9150894,91.1791303 36.3212778,91.7279564 36.6853375,92.4950343 C37.0493972,93.2621121 37.4460571,93.9495865 37.564785,94.5820294 C37.6835129,95.2144723 37.7980895,95.8889488 38.1557379,96.1925585 C38.5133863,96.4961682 38.7445947,96.6421856 38.941747,96.6421856 C39.1388993,96.6421856 39.3319355,96.5418443 39.6540131,96.9820422 C39.9760908,97.4222401 40.0834871,97.4978215 40.2422738,97.8651036 C40.4010605,98.2323857 40.2823912,98.62966 40.8166908,98.8968187 C41.3509904,99.1639774 41.6884687,99.2839493 41.8215222,99.7594333 C41.9212076,100.115672 41.9327181,100.473119 42.0561829,100.784613 C41.9274481,100.916094 41.7723785,100.953697 41.6238265,100.865696 C41.4628323,100.770324 41.1877544,100.440546 40.8186183,100.026602 C40.4494822,99.6126579 40.3697922,99.2872489 40.1993279,99.1014135 C40.0288636,98.9155782 39.8971674,98.9535301 39.8725646,99.4835809 C39.8479619,100.013632 40.1993279,100.398978 40.4389299,100.727345 C40.678532,101.055712 40.3835093,101.037941 40.1993279,100.891205 C40.0151465,100.74447 40.1077974,100.751096 39.5616885,100.500245 C39.0155797,100.249394 38.931491,100.493262 39.0425811,100.751096 C39.1536712,101.008929 39.5993901,101.513427 40.4898664,102.244479 C41.0835172,102.731848 41.6614796,103.13219 42.2237535,103.445506 C42.757803,103.831131 43.1314087,104.102425 43.3445707,104.259389 C43.6643136,104.494836 44.0670533,104.868998 44.382239,104.941622 C44.6974246,105.014247 44.8620337,105.067202 44.9788024,104.793565 C45.0955712,104.519928 44.7035959,104.390765 44.4461566,104.194677 C44.1887172,103.99859 43.8274882,103.618647 43.3983695,103.237373 C42.9692508,102.856098 42.926511,102.773679 42.6567728,102.402819 C42.4372256,102.100966 42.5750692,101.784489 42.7030997,101.551252 C42.999684,101.806975 43.3482553,102.065174 43.6228138,102.259245 C44.074176,102.57829 44.8695406,103.113704 45.038096,103.72626 C45.2066513,104.338815 45.1758308,104.83177 45.4145199,104.940895 C45.653209,105.050021 46.1030976,104.99677 46.3490872,104.69727 C46.5950767,104.39777 46.6940696,103.979474 46.5215784,103.50141 C46.3490872,103.023346 45.726867,102.310901 45.5095198,102.10353 C45.3646217,101.965282 45.0950726,101.683301 44.7008725,101.257586 L45.7007807,101.257586 C45.7673355,100.971204 45.640626,100.676745 45.3206523,100.374208 C44.8406918,99.9204019 44.5125089,99.8335762 43.9238176,99.7594333 C43.3351263,99.6852903 42.9780726,99.4864469 43.0585302,99.0712992 C43.1389877,98.6561516 43.4102213,98.6928914 43.3298062,98.2301355 C43.2493912,97.7673796 42.7715516,97.4229012 42.3767842,97.1236508 C41.9820168,96.8244003 40.398607,95.6099389 40.0263101,94.9309178 C39.6540131,94.2518967 39.3905033,93.5000548 39.5222582,93.1233525 C39.6540131,92.7466502 39.8859774,92.684658 40.2422738,92.7466502 C40.5985702,92.8086425 40.8166908,93.0109642 40.8166908,93.2475855 C40.8166908,93.4842068 40.6164361,93.7723695 40.8166908,94.017715 C41.0169455,94.2630605 41.6349441,94.8111305 42.1600669,95.16343 C42.6851896,95.5157294 43.8276386,96.1907544 43.8276386,96.515986 C43.8276386,96.8412177 43.7889772,97.2341452 44.0153591,97.4968453 C44.2417411,97.7595453 44.8960224,98.3831652 45.5095198,99.0712992 C45.918518,99.5300553 46.5064325,100.199688 47.2732632,101.080199 C47.6367019,101.424894 47.956234,101.670021 48.2318595,101.81558 C48.6452977,102.033918 49.2419589,102.17532 49.9620016,102.838365 C50.44203,103.280395 51.1114293,103.939725 51.9701995,104.816354 L53.3003075,106.249305 L54.3695614,107.233017 L55.8298944,108.288344 L56.9830261,109.454484 L58.1723305,110.41848 L59.8425726,111.280725 C60.3611824,111.511521 60.7908753,111.664807 61.1316514,111.740583 C61.6428155,111.854248 62.0938203,111.79183 62.2671727,112.236609 C62.4405251,112.681389 62.673569,113.284024 63.1676838,113.560831 C63.6617985,113.837637 64.8840093,114.375902 65.3892271,114.452889 C65.8944449,114.529876 67.2934871,114.725223 67.6758126,115.175956 C68.0581382,115.626689 68.7432809,116.37921 69.5256779,116.37921 C70.3080748,116.37921 71.7329323,115.959813 71.9038078,116.49164 C72.0746834,117.023467 72.4124942,117.680963 73.763036,117.680963 C75.1135777,117.680963 75.909956,117.812473 76.9025315,118.044829 C77.895107,118.277184 80.221996,118.773018 81.1647594,118.867486 C82.1075228,118.961953 86.3613414,119.218968 87.6586303,119.412767 C88.9559192,119.606567 90.6826117,120 91.126858,120 C91.5711042,120 91.8698801,119.718793 91.3726732,119.412767 C90.8754663,119.106742 90.4793498,119.05581 90.1798914,118.961648 C89.9802524,118.898873 89.7567858,118.764982 89.5094916,118.559973 L92.0448263,118.559973 C92.425942,118.559973 92.3353943,119.195509 93.4615689,119.13399 C94.5877434,119.072471 94.0748934,118.945237 95.3260702,118.714553 C96.5772471,118.483868 97.9498645,118.558404 98.482235,118.636478 C99.0146055,118.714553 100.429983,118.806884 100.883551,118.559973 C101.18593,118.395366 101.367369,118.102362 101.427868,117.680963 C101.65453,117.843513 101.921837,117.964802 102.229788,118.044829 C102.691714,118.164869 103.063505,118.069866 103.063505,117.778173 C103.063505,117.583711 102.785599,117.482332 102.229788,117.474035 C102.467763,117.229613 102.745669,117.066773 103.063505,116.985516 C103.540259,116.863631 104.129073,116.949215 104.943618,116.864917 C105.758162,116.780619 107.556114,116.559917 108.815583,116.113796 C110.075052,115.667674 111.052549,115.214059 112.412256,114.833474 C113.771963,114.452889 114.643621,114.433029 115.411374,114.540233 C116.179128,114.647436 116.646802,114.31993 117.253596,113.669163 C117.860391,113.018395 118.20947,112.577948 118.764303,112.577948 C119.319136,112.577948 119.863846,112.493312 120.579752,112.073671 C121.247931,111.682007 121.709241,111.458514 122.83443,111.020293 L123.08602,110.922963 C123.960643,110.586641 125.275262,110.004125 127.029878,109.175415 L128.799949,108.288344 L130.270155,107.15264 L132.200428,105.869634 C132.612768,105.608143 132.899468,105.32076 133.060528,105.007484 C133.221589,104.694209 133.352048,104.393078 133.451906,104.104094 L135.411696,103.143059 C136.043892,102.792415 136.500755,102.521505 136.782285,102.330327 C137.20458,102.043559 137.424031,101.788882 137.424031,101.257586 C137.424031,100.726291 137.547153,100.306008 137.844145,100.306008 C138.141136,100.306008 138.673382,100.518886 139.081479,99.9936314 C139.489576,99.4683772 139.445464,99.127933 139.976059,98.4965183 C140.506655,97.8651036 141.263299,97.1102364 141.483346,96.4407202 C141.630044,95.9943761 141.728292,95.527138 141.778091,95.039006 C141.971432,95.059619 142.32024,94.9072935 142.824515,94.5820294 C143.580926,94.0941334 144.309988,93.3143779 144.981465,92.2986985 C145.652943,91.2830191 146.588013,89.4582453 147.439409,88.2989577 C148.290805,87.13967 149.280655,86.3985349 149.739158,85.5836017 C150.197661,84.7686685 150.530584,83.9942551 150.530584,83.7083754 C150.530584,83.4224958 150.421384,83.2905447 150.008095,83.7083754 C149.73257,83.9869293 149.318811,84.6331421 148.766821,85.6470137 L147.755617,87.0395843 L146.530282,88.6375441 L144.635383,90.8419418 C143.988636,91.5586091 143.463393,92.1563884 143.059656,92.6352797 C142.45405,93.3536166 141.971588,93.9045159 141.844222,94.2432727 C141.759311,94.4691105 141.704351,94.6783094 141.679343,94.8708693 C141.482102,94.8174327 141.327342,94.8734783 141.215062,95.039006 C141.046643,95.2872975 140.769406,95.5473459 140.579363,95.7859193 C140.38932,96.0244928 140.001443,96.0101332 139.74919,96.0101332 C139.496938,96.0101332 139.439798,95.7859193 139.081479,95.7859193 C138.72316,95.7859193 138.777137,96.1285143 138.777137,96.2846172 C138.777137,96.4407202 139.138236,96.7015434 138.957686,96.9820422 C138.83732,97.1690415 138.326101,97.5850725 137.424031,98.2301355 L135.554898,99.7594333 L133.275402,101.485492 L130.938375,103.278279 L128.799949,104.625304 C127.622744,105.324031 126.869116,105.76938 126.539063,105.96135 C126.043985,106.249305 125.60505,106.390483 125.093932,106.390483 C124.582814,106.390483 124.730096,106.019455 125.093932,105.869634 C125.457767,105.719813 126.307524,105.213445 126.822921,104.816354 C127.338318,104.419263 127.621486,103.72626 128.210717,103.72626 C128.799949,103.72626 129.118746,103.513645 129.521152,103.143059 C129.923558,102.772472 130.092529,102.392359 131.212241,101.69235 C132.331952,100.992341 134.058302,100.031876 134.625442,99.5971535 C135.192582,99.1624314 135.900116,97.9656186 136.402439,97.4222401 C136.904763,96.8788617 137.781956,95.8327941 138.60983,95.498112 C139.437704,95.16343 139.603595,94.9207862 139.74919,94.5820294 C139.894786,94.2432727 140.29862,93.5184515 140.69277,92.9460662 C141.08692,92.3736809 141.345676,92.1386082 142.018264,91.9185472 C142.690852,91.6984863 142.71921,91.4063498 142.591937,91.174774 C142.464663,90.9431983 142.258436,90.4752908 142.018264,90.3728972 C141.778091,90.2705035 141.370468,90.3725688 140.762411,91.0090181 C140.154354,91.6454673 139.681142,92.1259606 139.547502,92.3806201 C139.413863,92.6352797 139.259191,92.8899392 139.018164,92.6352797 C138.777137,92.3806201 139.00169,91.6124066 138.60983,91.8051466 C138.21797,91.9978867 138.077976,92.3599551 137.96106,93.1233525 C137.844145,93.88675 137.508853,94.5199293 137.292858,94.5820294 C137.148861,94.6234295 136.957748,94.6234295 136.71952,94.5820294 L136.71952,93.7821929 C136.349508,93.8403343 136.062901,94.0463238 135.8597,94.4001614 C135.656498,94.753999 135.181553,95.5013404 134.434864,96.6421856 C134.056316,97.1628021 133.699121,97.5704415 133.36328,97.8651036 C132.859518,98.3070968 132.237695,98.6536871 132.075118,98.7398078 C131.912541,98.8259285 131.665161,98.8672396 131.438701,98.3661716 C131.212241,97.8651036 131.037286,97.7208295 131.618857,97.4222401 C132.200428,97.1236508 132.886823,96.6040805 133.199441,96.0101332 C133.407853,95.6141684 133.742298,94.9041831 134.202777,93.8801772 L135.096131,93.8801772 C135.411696,93.8801772 135.590748,93.4610243 135.996594,92.8798614 C136.402439,92.2986985 137.000895,91.5639713 137.669452,91.0090181 C138.338009,90.4540649 138.503408,90.2641125 138.957686,89.5950727 C139.411965,88.9260329 139.497501,87.9306586 140.095135,87.0395843 C140.493558,86.4455349 141.295083,85.5228495 142.499711,84.2715282 L143.5475,82.8084616 L144.401128,81.1269763 L145.335261,79.8348664 L146.217996,78.4646629 L147.092516,76.6737145 L147.439409,75.2566674 L147.439409,73.928201 C147.844725,73.5704323 148.179919,73.3402179 148.44499,73.2375576 C148.842596,73.0835671 149.004724,72.8682897 149.261191,72.3575574 C149.517658,71.846825 149.653285,70.5590047 149.799432,69.9632446 C149.945579,69.3674845 150.325675,68.6425609 150.530584,67.5757667 C150.735493,66.5089726 150.933342,65.7242385 151.031671,65.0029465 C151.13,64.2816545 151.323568,62.9318744 151.323568,62.4638532 C151.323568,61.9958321 151.664897,61.2326242 151.664897,60.743606 L151.664897,58.6861323 C151.664897,58.4747943 151.7315,57.3854744 151.864707,55.4181726 L151.864707,53.891175 C151.951205,52.9825791 151.994454,52.1339128 151.994454,51.3451762 C151.994454,50.1620713 151.836826,48.18671 151.664897,47.5083913 C151.492969,46.8300726 151.399061,46.1961317 151.586839,45.5926249 C151.774617,44.9891181 152.22413,44.46319 151.864707,44.1868782 C151.505283,43.9105663 150.623066,44.2314786 150.623066,43.351316 C150.623066,42.4711535 151.010597,42.1880765 150.816831,41.5159921 C150.623066,40.8439076 150.108634,40.5767518 149.739158,39.6901609 C149.369681,38.80357 149.47022,38.2813214 149.739158,37.7744223 C150.008095,37.2675232 150.277033,36.9194253 150.008095,36.5200683 C149.739158,36.1207113 149.345994,35.8160246 149.261191,34.8502227 C149.176387,33.8844209 149.386944,33.0116639 149.386944,32.1816947 C149.386944,31.3517255 149.487013,30.4651949 149.057548,30.3613259 C148.771238,30.2920799 148.567052,30.4511934 148.44499,30.8386666 C148.450739,30.0416279 148.366745,29.3044274 148.193008,28.627065 C147.932401,27.6110213 147.687982,26.6537527 147.439409,25.9553342 C147.190836,25.2569158 146.670777,24.6263856 146.077602,24.1750885 C145.484427,23.7237915 144.465912,22.782515 144.401128,22.6067838 C144.336343,22.4310525 144.889131,22.1383269 144.46763,21.8107446 C144.046129,21.4831622 143.103451,21.7103784 143.325476,21.2358254 C143.5475,20.7612724 144.035344,20.7513046 143.5475,19.9956392 C143.059656,19.2399738 142.498104,19.0941959 142.352786,18.1058826 C142.207468,17.1175694 142.05667,16.7502234 141.483346,15.9460631 C141.10113,15.4099562 140.259243,14.273605 138.957686,12.5370094 L137.292858,10.3579022 L135.717501,8.66706396 L134.731727,7.57850196 L133.790564,6.49172502 C133.260612,5.75271175 132.893097,5.27327606 132.688018,5.05341794 C132.380401,4.72363076 131.96924,4.33466459 131.51977,4.22311744 C131.220124,4.14875267 130.969775,4.12176564 130.768724,4.14215635 C130.510501,3.65760713 130.204412,3.19709543 129.85046,2.76062123 C129.496507,2.32414703 128.949926,1.83872978 128.210717,1.30436947 L126.133213,0.0410786243 L124.541007,-0.951889059 L122.308973,-2.16822235 L120.755543,-2.95101839 L118.314815,-4.1055171 L115.917184,-5.12848542 L113.2343,-6.21703036 L110.228128,-7.15128628 L106.623897,-8.23544381 L104.134763,-8.75643508 C103.584908,-8.87016035 103.165233,-8.97834685 102.875737,-9.08099456 C102.586242,-9.18364228 102.201627,-9.37093404 101.721892,-9.64286986 C102.159839,-9.75061127 102.544454,-9.80448198 102.875737,-9.80448198 C103.207021,-9.80448198 103.81255,-9.72163673 104.692323,-9.55594622 C104.860052,-9.5061539 104.915981,-9.53512844 104.860109,-9.64286986 C104.804237,-9.75061127 104.597833,-9.99685365 104.240895,-10.381597 C103.898435,-10.883658 103.585294,-11.1667439 103.301471,-11.2308548 C102.875737,-11.3270212 102.61751,-11.2192135 102.441494,-11.0558872 C102.265479,-10.892561 102.134274,-10.667958 101.868092,-10.667958 C101.601911,-10.667958 101.428592,-11.0998997 101.142141,-11.2308548 C100.855689,-11.36181 100.501643,-11.4620606 100.185019,-11.3104016 C99.9739358,-11.2092957 99.4949561,-10.8782565 98.7480797,-10.3172842 C98.7900232,-10.6918733 98.759546,-10.964006 98.656648,-11.1336822 C98.502301,-11.3881966 98.0886043,-11.4686908 97.5747684,-11.4686908 C97.0609326,-11.4686908 96.6172664,-11.4461171 96.2810565,-11.56146 C95.9448467,-11.6768028 95.5980589,-12.1295248 95.195723,-11.964027 Z" fill="#FFFFFF" mask="url(#mask-2)"></path>
                </g>
                <g id="Smart-Cyber" transform="translate(20.000000, 40.000000)">
                    <g id="Cyber" transform="translate(0.000000, 18.382979)" fill="#6A7EBB">
                        <path d="M129.311381,0.000401748263 C132.709125,-0.0296043745 135.19061,1.62120941 135.19061,4.96043479 C135.19061,8.29966017 133.177327,8.76746181 132.477606,9.27870585 C132.663175,9.53815853 132.906775,9.88359245 133.208406,10.3150076 L133.481159,10.7058486 C134.007259,11.4609944 134.67666,12.4284611 135.489362,13.6082489 L130.988824,13.6170213 L128.526734,9.79599741 L114.384167,9.79599741 L114.384167,13.6082489 L110.249468,13.6082489 L110.249468,0.000401748263 C113.477237,0.0065848281 116.314371,0.0108567742 118.760873,0.0132175865 L119.608124,0.0139714593 C119.746629,0.0140838789 119.883783,0.0141896856 120.019585,0.0142888794 L120.818176,0.0148046872 C120.948571,0.0148774293 121.077614,0.0149435585 121.205306,0.0150030748 L124.324528,0.0150030748 C124.42789,0.0149435585 124.5299,0.0148774293 124.630558,0.0148046872 L125.218288,0.0142888794 C125.31354,0.0141896856 125.40744,0.0140838789 125.499988,0.0139714593 L126.039058,0.0132175865 C127.520466,0.0108567742 128.61124,0.0065848281 129.311381,0.000401748263 Z M128.966884,3.50389691 L114.309955,3.50389691 L114.309955,6.55001871 L128.966884,6.55001871 C131.003533,6.55001871 131.143991,5.37092029 131.153678,5.07688991 L131.153678,4.97702571 C131.143991,4.68299533 131.003533,3.50389691 128.966884,3.50389691 Z" id="R"></path>
                        <polygon id="E" points="83.6393989 0 83.6393989 13.6170213 107.141007 13.6170213 107.141007 10.2942152 87.6360088 10.2942152 87.6360088 8.30035469 105.083853 8.30035469 105.083853 5.22470305 87.6360088 5.22470305 87.6360088 3.17241316 107.141007 3.17241316 107.141007 0"></polygon>
                        <path d="M75.0703066,0 C78.4035607,0 79.9463359,1.63700647 79.9463359,3.41400488 C79.9463359,5.1910033 79.339227,6.17515706 77.429816,6.56955895 C79.3341078,6.80851064 80.7721065,7.67896853 80.7721065,9.76829347 C80.7721065,11.8576184 79.4673613,13.6170213 75.0703066,13.6170213 L54.7906982,13.6170213 L54.7906982,0 L75.0703066,0 Z M75.4215509,8.26537356 L58.8046168,8.26537356 L58.8046168,10.5804261 L75.4215509,10.5804261 C76.6013806,10.5804261 76.8876188,9.98366466 76.8876188,9.44127731 C76.8876188,8.89888995 76.653298,8.26537356 75.4215509,8.26537356 Z M74.5585543,3.02604406 L58.8046168,3.02604406 L58.8046168,5.22509783 L74.5585543,5.22509783 C75.6771098,5.22509783 75.9484823,4.6582379 75.9484823,4.14302759 C75.9484823,3.62781727 75.7263308,3.02604406 74.5585543,3.02604406 Z" id="B"></path>
                        <polygon id="Y" points="26.3211627 0 37.6605015 9.2005992 37.6605015 13.6170213 41.7811815 13.6170213 41.7811815 9.2005992 53.0634368 0 47.3508392 0 39.6922997 6.18649318 32.110767 0"></polygon>
                        <path d="M20.7639404,0 C23.8331138,0 25.0922175,1.10305047 25.6769012,1.67394064 C25.6769012,1.67394064 23.1870916,4.46640152 23.1870916,4.46640152 C22.6007758,3.74568076 21.8366133,3.47989894 20.7639404,3.47989894 C19.6912674,3.47989894 10.7678311,3.47989894 7.8158669,3.47989894 C4.86390271,3.47989894 4.00948726,5.14959501 4.00948726,6.80851064 C4.00948726,8.46742627 4.92777544,10.0885368 7.8158669,10.0885368 C10.7039584,10.0885368 19.4009067,10.0885368 20.7639404,10.0885368 C22.1269741,10.0885368 22.767338,9.54049144 23.1870916,9.12587372 C23.1870916,9.12587372 25.6769012,11.8496022 25.6769012,11.8496022 C24.5742105,12.8822022 22.9311206,13.6170213 20.7639404,13.6170213 C18.5967601,13.6170213 12.0559316,13.6170213 7.8158669,13.6170213 C3.5758022,13.6170213 0,11.6226307 0,6.80851064 C0,1.99439057 3.40496086,0 7.8158669,0 C12.2267729,0 17.694767,0 20.7639404,0 Z" id="C"></path>
                    </g>
                    <g id="Smart" transform="translate(11.574468, 0.000000)" fill="#5F4BA0">
                        <polygon id="T" points="93.3450551 0.023952823 93.3450551 2.85637719 101.161426 2.85637719 101.161426 10.893617 104.479985 10.893617 104.479985 2.85637719 112.340426 2.85637719 112.340426 0.023952823"></polygon>
                        <path d="M71.6063484,0 C76.2740173,0.0179646173 79.9177362,0.0283504116 82.5375051,0.0311573831 L85.026981,0.0311573831 C85.7852833,0.0300138021 86.3736296,0.0276122821 86.7920199,0.023952823 C89.5305744,0 91.5306318,1.31778606 91.5306318,3.9833712 C91.5306318,6.64895633 89.9079415,7.02238578 89.3439721,7.43049376 C89.7713077,8.02224195 90.5804583,9.17428215 91.7714236,10.8866144 L88.1440258,10.893617 L86.1596002,7.84342925 L74.7608032,7.84342925 L74.7608032,10.8866144 L71.6063484,10.8866144 L71.6063484,0 Z M86.610179,2.75800334 L74.7771644,2.75800334 L74.7771644,5.23343249 L86.610179,5.23343249 C88.240378,5.23343249 88.3657779,4.29154821 88.375424,4.04257854 L88.375424,3.94885728 C88.3657779,3.69988761 88.240378,2.75800334 86.610179,2.75800334 Z" id="R"></path>
                        <path d="M59.8427236,0 L69.5653902,10.8866144 L65.8581303,10.8866144 L64.2492505,9.04660109 L52.3772407,9.04660109 L50.7211167,10.8866144 L46.9990714,10.8866144 L56.7208449,0 L59.8427236,0 Z M58.2661619,2.31422733 L54.5588892,6.54806272 L61.9734346,6.54806272 L58.2661619,2.31422733 Z" id="A"></path>
                        <polygon id="M" points="21.7657923 10.8866144 21.7657923 0 24.8531852 0 33.4109152 6.33352818 41.9273266 0 45.0372321 0 45.0372321 10.8866144 41.6759175 10.8866144 41.6759175 3.70454785 34.0342361 9.55092046 32.8240869 9.55092046 25.13362 3.70454785 25.13362 10.8866144"></polygon>
                        <path d="M14.5629908,0 C18.0277901,0 19.0014843,1.36480918 19.3103191,2.22620571 C19.3103191,2.22620571 16.3033683,3.43519166 16.3033683,3.43519166 C15.8942984,2.55584039 15.216533,2.63672336 14.5629908,2.63672336 C13.9094485,2.63672336 5.02861725,2.63672336 4.08083517,2.63672336 C3.1330531,2.63672336 3.05453689,2.96262226 3.05453689,3.304912 C3.05453689,3.64720173 3.27316401,3.98450465 4.08083517,3.98450465 C4.88850634,3.98450465 10.978516,4.19488711 14.5629908,4.31327507 C18.1474656,4.43166304 19.5074635,5.62872876 19.5074635,7.58451051 C19.5074635,9.54029226 18.7848911,10.8866144 14.5629908,10.8866144 C10.3410904,10.8866144 6.65446576,10.8866144 4.29347968,10.8866144 C1.93249359,10.8866144 0.354340435,9.87370398 0,8.67338303 C0,8.67338303 2.96090942,7.37277969 2.96090942,7.37277969 C3.5550111,8.42405804 3.99819154,8.33095164 4.66201421,8.33095164 C5.32583689,8.33095164 14.6078918,8.33095164 15.6096931,8.33095164 C16.6114944,8.33095164 16.7048773,7.79624133 16.7048773,7.58451051 C16.7048773,7.37277969 16.7048773,7.0062347 15.4620653,6.91343405 C14.2192532,6.8206334 7.38938594,6.74846485 4.08083517,6.59763768 C0.772284414,6.4468105 0.270548664,4.63351401 0.270548664,3.304912 C0.270548664,1.97630998 0.879929866,0 4.08083517,0 C7.28174048,0 11.0981915,0 14.5629908,0 Z" id="S"></path>
                    </g>
                </g>
            </g>
        </g>
    </g>
</svg>